<svg width="55" height="55" viewBox="0 0 55 55" fill="none" xmlns="http://www.w3.org/2000/svg">
<path d="M27.5 2.86458C28.4492 2.86458 29.2187 3.63409 29.2187 4.58333V6.875C29.2187 7.82424 28.4492 8.59375 27.5 8.59375C26.5508 8.59375 25.7812 7.82424 25.7812 6.875V4.58333C25.7812 3.63409 26.5508 2.86458 27.5 2.86458Z" fill="black"/>
<path fill-rule="evenodd" clip-rule="evenodd" d="M14.3229 27.5C14.3229 20.2225 20.2225 14.3229 27.5 14.3229C34.7775 14.3229 40.6771 20.2225 40.6771 27.5C40.6771 34.7775 34.7775 40.6771 27.5 40.6771C20.2225 40.6771 14.3229 34.7775 14.3229 27.5ZM27.5 17.7604C22.121 17.7604 17.7604 22.121 17.7604 27.5C17.7604 32.879 22.121 37.2396 27.5 37.2396C32.879 37.2396 37.2396 32.879 37.2396 27.5C37.2396 22.121 32.879 17.7604 27.5 17.7604Z" fill="black"/>
<path d="M12.5108 10.0802C11.8396 9.40897 10.7514 9.40897 10.0802 10.0802C9.40895 10.7514 9.40895 11.8396 10.0802 12.5109L11.7006 14.1313C12.3718 14.8025 13.4601 14.8025 14.1313 14.1313C14.8025 13.4601 14.8025 12.3718 14.1313 11.7006L12.5108 10.0802Z" fill="black"/>
<path d="M52.1354 27.5C52.1354 28.4492 51.3659 29.2187 50.4167 29.2187H48.125C47.1758 29.2187 46.4062 28.4492 46.4062 27.5C46.4062 26.5508 47.1758 25.7812 48.125 25.7812H50.4167C51.3659 25.7812 52.1354 26.5508 52.1354 27.5Z" fill="black"/>
<path d="M44.9198 12.5108C45.591 11.8396 45.591 10.7514 44.9198 10.0802C44.2486 9.40895 43.1604 9.40895 42.4891 10.0802L40.8687 11.7006C40.1975 12.3718 40.1975 13.4601 40.8687 14.1313C41.5399 14.8025 42.6281 14.8025 43.2994 14.1313L44.9198 12.5108Z" fill="black"/>
<path d="M27.5 46.4062C28.4492 46.4062 29.2187 47.1758 29.2187 48.125V50.4167C29.2187 51.3659 28.4492 52.1354 27.5 52.1354C26.5508 52.1354 25.7812 51.3659 25.7812 50.4167V48.125C25.7812 47.1758 26.5508 46.4062 27.5 46.4062Z" fill="black"/>
<path d="M43.2995 40.8687C42.6283 40.1975 41.54 40.1975 40.8688 40.8687C40.1976 41.5399 40.1976 42.6282 40.8688 43.2994L42.4893 44.9198C43.1605 45.5911 44.2488 45.5911 44.92 44.9198C45.5912 44.2486 45.5912 43.1604 44.92 42.4892L43.2995 40.8687Z" fill="black"/>
<path d="M8.59375 27.5C8.59375 28.4492 7.82424 29.2187 6.875 29.2187H4.58333C3.63409 29.2187 2.86458 28.4492 2.86458 27.5C2.86458 26.5508 3.63409 25.7812 4.58333 25.7812H6.875C7.82424 25.7812 8.59375 26.5508 8.59375 27.5Z" fill="black"/>
<path d="M14.1311 43.2994C14.8024 42.6282 14.8024 41.5399 14.1311 40.8687C13.4599 40.1975 12.3717 40.1975 11.7005 40.8687L10.08 42.4891C9.40879 43.1604 9.40879 44.2486 10.08 44.9198C10.7512 45.591 11.8395 45.591 12.5107 44.9198L14.1311 43.2994Z" fill="black"/>
</svg>
