<svg width="56" height="55" viewBox="0 0 56 55" fill="none" xmlns="http://www.w3.org/2000/svg">
<g id="Outline/General/Sun">
<g id="Icon">
<path d="M28.0048 3.54557C28.9449 3.54557 29.707 4.30134 29.707 5.23363V7.48438C29.707 8.41666 28.9449 9.17243 28.0048 9.17243C27.0647 9.17243 26.3026 8.41666 26.3026 7.48438V5.23363C26.3026 4.30134 27.0647 3.54557 28.0048 3.54557Z" fill="white"/>
<path fill-rule="evenodd" clip-rule="evenodd" d="M14.9544 27.7411C14.9544 20.5935 20.7973 14.7993 28.0048 14.7993C35.2123 14.7993 41.0552 20.5935 41.0552 27.7411C41.0552 34.8886 35.2123 40.6828 28.0048 40.6828C20.7973 40.6828 14.9544 34.8886 14.9544 27.7411ZM28.0048 18.1754C22.6775 18.1754 18.3589 22.4581 18.3589 27.7411C18.3589 33.024 22.6775 37.3067 28.0048 37.3067C33.3321 37.3067 37.6507 33.024 37.6507 27.7411C37.6507 22.4581 33.3321 18.1754 28.0048 18.1754Z" fill="white"/>
<path d="M13.1598 10.6323C12.495 9.97309 11.4172 9.97309 10.7525 10.6323C10.0877 11.2915 10.0877 12.3604 10.7525 13.0196L12.3573 14.6111C13.0221 15.2703 14.0999 15.2703 14.7646 14.6111C15.4294 13.9519 15.4294 12.8831 14.7646 12.2238L13.1598 10.6323Z" fill="white"/>
<path d="M52.4033 27.7411C52.4033 28.6734 51.6412 29.4291 50.7011 29.4291H48.4315C47.4914 29.4291 46.7293 28.6734 46.7293 27.7411C46.7293 26.8088 47.4914 26.053 48.4315 26.053H50.7011C51.6412 26.053 52.4033 26.8088 52.4033 27.7411Z" fill="white"/>
<path d="M45.2571 13.0196C45.9219 12.3603 45.9219 11.2915 45.2571 10.6323C44.5924 9.97307 43.5146 9.97307 42.8498 10.6323L41.2449 12.2238C40.5802 12.883 40.5802 13.9519 41.2449 14.6111C41.9097 15.2703 42.9875 15.2703 43.6522 14.6111L45.2571 13.0196Z" fill="white"/>
<path d="M28.0048 46.3097C28.9449 46.3097 29.707 47.0655 29.707 47.9978V50.2485C29.707 51.1808 28.9449 51.9366 28.0048 51.9366C27.0647 51.9366 26.3026 51.1808 26.3026 50.2485V47.9978C26.3026 47.0655 27.0647 46.3097 28.0048 46.3097Z" fill="white"/>
<path d="M43.6524 40.8711C42.9876 40.2118 41.9099 40.2118 41.2451 40.8711C40.5803 41.5303 40.5803 42.5991 41.2451 43.2583L42.85 44.8498C43.5147 45.5091 44.5925 45.5091 45.2573 44.8498C45.922 44.1906 45.922 43.1218 45.2573 42.4626L43.6524 40.8711Z" fill="white"/>
<path d="M9.28034 27.7411C9.28034 28.6734 8.51823 29.4291 7.57812 29.4291H5.30849C4.36837 29.4291 3.60626 28.6734 3.60626 27.7411C3.60626 26.8088 4.36837 26.053 5.30849 26.053H7.57812C8.51823 26.053 9.28034 26.8088 9.28034 27.7411Z" fill="white"/>
<path d="M14.7645 43.2583C15.4292 42.5991 15.4292 41.5303 14.7645 40.871C14.0997 40.2118 13.0219 40.2118 12.3572 40.871L10.7523 42.4626C10.0875 43.1218 10.0875 44.1906 10.7523 44.8498C11.4171 45.5091 12.4949 45.5091 13.1596 44.8498L14.7645 43.2583Z" fill="white"/>
</g>
</g>
</svg>
